<?xml version="1.0" encoding="UTF-8" standalone="no"?>
<!-- Created with Inkscape (http://www.inkscape.org/) -->

<svg
   xmlns:dc="http://purl.org/dc/elements/1.1/"
   xmlns:cc="http://creativecommons.org/ns#"
   xmlns:rdf="http://www.w3.org/1999/02/22-rdf-syntax-ns#"
   xmlns:svg="http://www.w3.org/2000/svg"
   xmlns="http://www.w3.org/2000/svg"
   xmlns:sodipodi="http://sodipodi.sourceforge.net/DTD/sodipodi-0.dtd"
   xmlns:inkscape="http://www.inkscape.org/namespaces/inkscape"
   width="105.00001mm"
   height="105mm"
   viewBox="0 0 372.04727 372.04724"
   id="svg4905"
   version="1.1"
   inkscape:version="0.91 r13725"
   sodipodi:docname="icon.svg">
  <defs
     id="defs4907" />
  <sodipodi:namedview
     id="base"
     pagecolor="#ffffff"
     bordercolor="#666666"
     borderopacity="1.0"
     inkscape:pageopacity="0.0"
     inkscape:pageshadow="2"
     inkscape:zoom="0.7"
     inkscape:cx="441.67416"
     inkscape:cy="106.73938"
     inkscape:document-units="px"
     inkscape:current-layer="layer1"
     showgrid="false"
     inkscape:window-width="1600"
     inkscape:window-height="871"
     inkscape:window-x="1366"
     inkscape:window-y="0"
     inkscape:window-maximized="1"
     fit-margin-top="0"
     fit-margin-left="0"
     fit-margin-right="0"
     fit-margin-bottom="0" />
  <metadata
     id="metadata4910">
    <rdf:RDF>
      <cc:Work
         rdf:about="">
        <dc:format>image/svg+xml</dc:format>
        <dc:type
           rdf:resource="http://purl.org/dc/dcmitype/StillImage" />
        <dc:title></dc:title>
      </cc:Work>
    </rdf:RDF>
  </metadata>
  <g
     inkscape:label="Layer 1"
     inkscape:groupmode="layer"
     id="layer1"
     transform="translate(2.980232e-7,-680.31494)">
    <g
       id="g5597"
       inkscape:export-xdpi="90"
       inkscape:export-ydpi="90">
      <path
         id="path4666"
         d="m 92.979715,1016.3806 -0.03516,-0.4043 -1.431641,-16.22072 -7.359375,10.91012 a 176.76819,176.76819 0 0 0 8.826172,5.7149 z"
         style="fill:#b6b6b6;fill-opacity:1;stroke:#000000;stroke-width:0.79432297;stroke-miterlimit:4;stroke-dasharray:none;stroke-opacity:1"
         inkscape:connector-curvature="0" />
      <path
         id="path4669"
         d="m 120.11643,1030.0017 -1.24219,-14.0801 -1.42968,-16.22272 -10.94336,16.22272 -3.91211,5.7969 a 176.76819,176.76819 0 0 0 17.52734,8.2832 z"
         style="fill:#b6b6b6;fill-opacity:1;stroke:#000000;stroke-width:0.79432297;stroke-miterlimit:4;stroke-dasharray:none;stroke-opacity:1"
         inkscape:connector-curvature="0" />
      <path
         id="path4672"
         d="m 120.99143,1030.3083 -3.16211,-30.1387 -3.35156,-31.92181 -22.773436,31.92181 -0.138672,0.1934 1.378907,15.6133 0.03516,0.4043 a 176.76819,176.76819 0 0 0 9.609371,5.3379 l 3.91211,-5.7969 10.94336,-16.22272 1.42968,16.22272 1.24219,14.0801 a 176.76819,176.76819 0 0 0 0.875,0.3066 z"
         style="fill:#b6b6b6;fill-opacity:1;stroke:#000000;stroke-width:0.79432297;stroke-miterlimit:4;stroke-dasharray:none;stroke-opacity:1"
         inkscape:connector-curvature="0" />
      <path
         inkscape:connector-curvature="0"
         id="path4348"
         d="M 186.02464,689.57005 A 176.76819,176.76819 0 0 0 13.092996,830.65404 L 97.591043,865.9431 183.27464,902.7224 90.686746,885.55834 9.425027,869.67748 a 176.76819,176.76819 0 0 0 74.728516,140.98822 l 7.359375,-10.91012 0.05273,0.60742 0.138672,-0.1934 22.77344,-31.92181 3.35156,31.92181 3.16211,30.1387 a 176.76819,176.76819 0 0 0 65.03321,12.7988 176.76819,176.76819 0 0 0 65.11328,-12.6015 l 3.08203,-29.3594 3.34961,-31.92185 22.77344,31.92185 0.13867,0.1934 0.0527,-0.6075 6.84961,10.1543 a 176.76819,176.76819 0 0 0 75.29883,-141.0351 l -81.39453,15.60938 -92.65235,16.83984 85.82813,-36.47851 84.69922,-35.01758 A 176.76819,176.76819 0 0 0 186.02464,689.57005 Z"
         style="fill:#1976d2;fill-opacity:1;stroke:#000000;stroke-width:0.79432297;stroke-miterlimit:4;stroke-dasharray:none;stroke-opacity:1" />
      <path
         id="path4682"
         d="m 269.1555,1022.2478 -3.60743,-5.3496 -10.94336,-16.2227 -1.43164,16.2227 -1.17187,13.2988 a 176.76819,176.76819 0 0 0 17.1543,-7.9492 z"
         style="fill:#b6b6b6;fill-opacity:1;stroke:#000000;stroke-width:0.79432297;stroke-miterlimit:4;stroke-dasharray:none;stroke-opacity:1"
         inkscape:connector-curvature="0" />
      <path
         id="path4685"
         d="m 287.38401,1010.8864 -6.84961,-10.1543 -1.36914,15.5215 a 176.76819,176.76819 0 0 0 8.21875,-5.3672 z"
         style="fill:#b6b6b6;fill-opacity:1;stroke:#000000;stroke-width:0.79432297;stroke-miterlimit:4;stroke-dasharray:none;stroke-opacity:1"
         inkscape:connector-curvature="0" />
      <path
         id="path4688"
         d="m 280.48167,1001.3396 -0.13867,-0.1934 -22.77344,-31.92185 -3.34961,31.92185 -3.08203,29.3594 a 176.76819,176.76819 0 0 0 0.86328,-0.3086 l 1.17187,-13.2988 1.43164,-16.2227 10.94336,16.2227 3.60743,5.3496 a 176.76819,176.76819 0 0 0 10.00976,-5.9942 l 1.31641,-14.914 z"
         style="fill:#b6b6b6;fill-opacity:1;stroke:#000000;stroke-width:0.79432297;stroke-miterlimit:4;stroke-dasharray:none;stroke-opacity:1"
         inkscape:connector-curvature="0" />
      <path
         inkscape:connector-curvature="0"
         id="path4854"
         d="m 359.16331,830.80443 -84.69922,35.01758 -85.82813,36.47851 92.65235,-16.83984 81.39453,-15.60938 a 176.76819,176.76819 0 0 0 0.10937,-3.51171 176.76819,176.76819 0 0 0 -3.6289,-35.53516 z"
         style="fill:#ffc107;fill-opacity:1;stroke:#000000;stroke-width:0.79432297;stroke-miterlimit:4;stroke-dasharray:none;stroke-opacity:1" />
      <path
         inkscape:connector-curvature="0"
         id="path4858"
         d="M 9.425027,869.67748 90.686746,885.55834 183.27464,902.7224 97.591043,865.9431 13.092996,830.65404 a 176.76819,176.76819 0 0 0 -3.8378909,35.68555 176.76819,176.76819 0 0 0 0.1699219,3.33789 z"
         style="fill:#ffc107;fill-opacity:1;stroke:#000000;stroke-width:0.79432297;stroke-miterlimit:4;stroke-dasharray:none;stroke-opacity:1" />
      <ellipse
         ry="35.331188"
         rx="35.331192"
         cy="866.33862"
         cx="186.02365"
         id="path3336"
         style="fill:#ffeb3b;fill-opacity:1;stroke:#000000;stroke-width:3;stroke-miterlimit:4;stroke-dasharray:none;stroke-opacity:1" />
      <path
         inkscape:connector-curvature="0"
         id="path3340-7"
         d="m 159.23741,905.75239 3.35103,31.92242 3.35102,31.92243 -26.12336,0 -26.12337,0 22.77235,-31.92243 z"
         inkscape:transform-center-y="-23.229329"
         inkscape:transform-center-x="17.149309"
         style="fill:#b6b6b6;fill-opacity:1;stroke:#000000;stroke-width:0.73265707;stroke-miterlimit:4;stroke-dasharray:none;stroke-opacity:1" />
      <path
         inkscape:connector-curvature="0"
         id="path3340-6-7"
         d="m 136.27358,937.25982 1.43087,16.22214 1.43086,16.22216 -12.37421,0 -12.37421,0 10.94335,-16.22216 z"
         inkscape:transform-center-y="-11.804544"
         inkscape:transform-center-x="8.399657"
         style="fill:none;fill-opacity:1;stroke:#000000;stroke-width:0.3594605;stroke-miterlimit:4;stroke-dasharray:none;stroke-opacity:1" />
      <path
         inkscape:connector-curvature="0"
         id="path3340-6-6-4"
         d="m 162.20369,937.20408 1.43087,16.22214 1.43086,16.22216 -12.37421,0 -12.37421,0 10.94335,-16.22216 z"
         inkscape:transform-center-y="-11.804544"
         inkscape:transform-center-x="8.3996539"
         style="fill:none;fill-opacity:1;stroke:#000000;stroke-width:0.3594605;stroke-miterlimit:4;stroke-dasharray:none;stroke-opacity:1" />
      <path
         style="fill:#b6b6b6;fill-opacity:1;stroke:#000000;stroke-width:0.73265707;stroke-miterlimit:4;stroke-dasharray:none;stroke-opacity:1"
         inkscape:transform-center-x="17.149309"
         inkscape:transform-center-y="-23.229329"
         d="m 211.19268,905.74813 -3.35103,31.92242 -3.35103,31.92243 26.12337,0 26.12336,0 -22.77234,-31.92243 z"
         id="path3340-8"
         inkscape:connector-curvature="0" />
      <path
         style="fill:none;fill-opacity:1;stroke:#000000;stroke-width:0.3594605;stroke-miterlimit:4;stroke-dasharray:none;stroke-opacity:1"
         inkscape:transform-center-x="8.399657"
         inkscape:transform-center-y="-11.804544"
         d="m 234.15651,937.25556 -1.43087,16.22214 -1.43086,16.22216 12.37421,0 12.37421,0 -10.94335,-16.22216 z"
         id="path3340-6-17"
         inkscape:connector-curvature="0" />
      <path
         style="fill:none;fill-opacity:1;stroke:#000000;stroke-width:0.3594605;stroke-miterlimit:4;stroke-dasharray:none;stroke-opacity:1"
         inkscape:transform-center-x="8.3996539"
         inkscape:transform-center-y="-11.804544"
         d="m 208.22641,937.19982 -1.43087,16.22214 -1.43087,16.22216 12.37421,0 12.37422,0 -10.94335,-16.22216 z"
         id="path3340-6-6-5"
         inkscape:connector-curvature="0" />
      <path
         inkscape:connector-curvature="0"
         id="path4456"
         d="m 159.43904,905.73186 51.68705,0 z"
         style="fill:none;fill-opacity:1;fill-rule:evenodd;stroke:#000000;stroke-width:2.00650954;stroke-linecap:butt;stroke-linejoin:miter;stroke-miterlimit:4;stroke-dasharray:none;stroke-opacity:1" />
      <ellipse
         ry="185.03348"
         rx="185.03349"
         cy="866.33856"
         cx="186.02364"
         id="path5544"
         style="fill:none;fill-opacity:1;stroke:#000000;stroke-width:1.98028624;stroke-miterlimit:4;stroke-dasharray:none;stroke-opacity:1" />
    </g>
  </g>
</svg>
